<svg id="Capa_1" enable-background="new 0 0 511.68 511.68" height="512" viewBox="0 0 511.68 511.68" width="512" xmlns="http://www.w3.org/2000/svg"><g><path d="m374.13 85.895v42.42h-30v-42.42c0-10.72-8.72-19.43-19.43-19.43h-137.72c-10.71 0-19.43 8.71-19.43 19.43v42.42h-30v-42.42c0-27.26 22.18-49.43 49.43-49.43h137.72c27.25 0 49.43 22.17 49.43 49.43z" fill="#393e9f"/><path d="m374.13 85.895v42.42h-30v-42.42c0-10.72-8.72-19.43-19.43-19.43h-68.86v-30h68.86c27.25 0 49.43 22.17 49.43 49.43z" fill="#340d66"/><path d="m0 189.185h511.68v286.03h-511.68z" fill="#ffcf67"/><path d="m255.84 189.185h255.84v286.03h-255.84z" fill="#feb920"/><path d="m511.68 109.715v79.47l-255.84 147.71-255.84-147.71v-79.47z" fill="#feb920"/><path d="m511.68 109.715v79.47l-255.84 147.71v-227.18z" fill="#fc9b28"/><path d="m221.41 206.735h68.86v30h-68.86z" fill="#ffcf67"/><path d="m255.84 206.735h34.43v30h-34.43z" fill="#feb920"/></g></svg>