<svg id="Capa_1" enable-background="new 0 0 512 512" height="512" viewBox="0 0 512 512" width="512" xmlns="http://www.w3.org/2000/svg"><g><path d="m420.33 261.54v30h-149.33v94.55h-30v-94.55h-149.33v-30h149.33v-94.54h30v94.54z" fill="#bbe4f2"/><path d="m420.33 261.54v30h-149.33v94.55h-15v-219.09h15v94.54z" fill="#8cd4e5"/><path d="m329.14 512h-146.28c0-40.4 32.74-73.14 73.14-73.14 20.2 0 38.48 8.18 51.72 21.42s21.42 31.52 21.42 51.72z" fill="#fe4945"/><path d="m307.72 460.28c13.24 13.24 21.42 31.52 21.42 51.72h-73.14v-73.14c20.2 0 38.48 8.18 51.72 21.42z" fill="#fa185e"/><path d="m292.57 402.29c0 20.19-16.37 36.57-36.57 36.57s-36.57-16.38-36.57-36.57c0-20.2 16.37-36.58 36.57-36.58s36.57 16.38 36.57 36.58z" fill="#fccbc3"/><path d="m292.57 402.29c0 20.19-16.37 36.57-36.57 36.57v-73.15c20.2 0 36.57 16.38 36.57 36.58z" fill="#ffb9ab"/><path d="m146.28 386.26h-146.28c0-40.4 32.74-73.14 73.14-73.14 20.2 0 38.48 8.18 51.72 21.42s21.42 31.52 21.42 51.72z" fill="#fe4945"/><path d="m124.86 334.54c13.24 13.24 21.42 31.52 21.42 51.72h-73.14v-73.14c20.2 0 38.48 8.18 51.72 21.42z" fill="#fa185e"/><path d="m109.71 276.55c0 20.19-16.37 36.57-36.57 36.57s-36.57-16.38-36.57-36.57c0-20.2 16.37-36.58 36.57-36.58s36.57 16.38 36.57 36.58z" fill="#fccbc3"/><path d="m109.71 276.55c0 20.19-16.37 36.57-36.57 36.57v-73.15c20.2 0 36.57 16.38 36.57 36.58z" fill="#ffb9ab"/><path d="m512 386.26h-146.28c0-40.4 32.74-73.14 73.14-73.14 20.2 0 38.48 8.18 51.72 21.42s21.42 31.52 21.42 51.72z" fill="#fe4945"/><path d="m490.58 334.54c13.24 13.24 21.42 31.52 21.42 51.72h-73.14v-73.14c20.2 0 38.48 8.18 51.72 21.42z" fill="#fa185e"/><path d="m475.43 276.55c0 20.19-16.37 36.57-36.57 36.57s-36.57-16.38-36.57-36.57c0-20.2 16.37-36.58 36.57-36.58s36.57 16.38 36.57 36.58z" fill="#fccbc3"/><path d="m475.43 276.55c0 20.19-16.37 36.57-36.57 36.57v-73.15c20.2 0 36.57 16.38 36.57 36.58z" fill="#ffb9ab"/><path d="m349.65 187.37h-187.3c0-51.72 41.93-93.64 93.65-93.64 25.86 0 49.27 10.48 66.22 27.43 16.95 16.94 27.43 40.35 27.43 66.21z" fill="#5564bf"/><path d="m349.65 187.37h-93.65v-93.64c25.86 0 49.27 10.48 66.22 27.43 16.95 16.94 27.43 40.35 27.43 66.21z" fill="#393e9f"/><path d="m302.86 46.86c0 25.89-20.98 46.87-46.86 46.87s-46.86-20.98-46.86-46.87c0-25.88 20.98-46.86 46.86-46.86s46.86 20.98 46.86 46.86z" fill="#fccbc3"/><path d="m256 93.73v-93.73c25.88 0 46.86 20.98 46.86 46.86 0 25.89-20.98 46.87-46.86 46.87z" fill="#ffb9ab"/></g></svg>